solid "STL generated by PolygonCrest editor."
facet normal -0.000000 -1.000000 -0.000000
outer loop
vertex -0.382683 -1.000000 -0.923880
vertex -0.707107 -1.000000 -0.707107
vertex -5.000000 -1.000000 -5.000000
endloop
endfacet
facet normal -0.000000 -0.000000 -1.000000
outer loop
vertex 5.000000 -1.000000 -5.000000
vertex -5.000000 1.000000 -5.000000
vertex 5.000000 1.000000 -5.000000
endloop
endfacet
facet normal 1.000000 0.000000 0.000000
outer loop
vertex 5.000000 -1.000000 5.000000
vertex 5.000000 1.000000 -5.000000
vertex 5.000000 1.000000 5.000000
endloop
endfacet
facet normal 0.000000 0.000000 1.000000
outer loop
vertex -5.000000 -1.000000 5.000000
vertex 5.000000 1.000000 5.000000
vertex -5.000000 1.000000 5.000000
endloop
endfacet
facet normal -1.000000 -0.000000 -0.000000
outer loop
vertex -5.000000 -1.000000 -5.000000
vertex -5.000000 1.000000 5.000000
vertex -5.000000 1.000000 -5.000000
endloop
endfacet
facet normal 0.000000 1.000000 0.000000
outer loop
vertex -5.000000 1.000000 5.000000
vertex -1.000000 1.000000 -0.000000
vertex -5.000000 1.000000 -5.000000
endloop
endfacet
facet normal -0.831470 -0.000000 -0.555570
outer loop
vertex 0.707107 -1.000000 0.707107
vertex 0.923880 1.000000 0.382683
vertex 0.923880 -1.000000 0.382683
endloop
endfacet
facet normal -0.980785 0.000000 0.195090
outer loop
vertex 1.000000 -1.000000 0.000000
vertex 0.923880 1.000000 -0.382683
vertex 0.923880 -1.000000 -0.382683
endloop
endfacet
facet normal -0.831470 -0.000000 0.555570
outer loop
vertex 0.923880 -1.000000 -0.382683
vertex 0.707107 1.000000 -0.707107
vertex 0.707107 -1.000000 -0.707107
endloop
endfacet
facet normal -0.555570 0.000000 0.831470
outer loop
vertex 0.707107 -1.000000 -0.707107
vertex 0.382683 1.000000 -0.923880
vertex 0.382683 -1.000000 -0.923880
endloop
endfacet
facet normal -0.195090 -0.000000 0.980785
outer loop
vertex 0.382683 -1.000000 -0.923880
vertex 0.000000 1.000000 -1.000000
vertex 0.000000 -1.000000 -1.000000
endloop
endfacet
facet normal 0.195090 0.000000 0.980785
outer loop
vertex 0.000000 -1.000000 -1.000000
vertex -0.382683 1.000000 -0.923880
vertex -0.382683 -1.000000 -0.923880
endloop
endfacet
facet normal 0.555570 -0.000000 0.831470
outer loop
vertex -0.382683 -1.000000 -0.923880
vertex -0.707107 1.000000 -0.707107
vertex -0.707107 -1.000000 -0.707107
endloop
endfacet
facet normal 0.831470 0.000000 0.555570
outer loop
vertex -0.707107 -1.000000 -0.707107
vertex -0.923880 1.000000 -0.382683
vertex -0.923880 -1.000000 -0.382683
endloop
endfacet
facet normal 0.980785 -0.000000 0.195090
outer loop
vertex -0.923880 -1.000000 -0.382683
vertex -1.000000 1.000000 -0.000000
vertex -1.000000 -1.000000 -0.000000
endloop
endfacet
facet normal 0.980785 0.000000 -0.195090
outer loop
vertex -1.000000 -1.000000 -0.000000
vertex -0.923880 1.000000 0.382683
vertex -0.923880 -1.000000 0.382683
endloop
endfacet
facet normal 0.831470 -0.000000 -0.555570
outer loop
vertex -0.923880 -1.000000 0.382683
vertex -0.707107 1.000000 0.707107
vertex -0.707107 -1.000000 0.707107
endloop
endfacet
facet normal 0.555570 -0.000000 -0.831470
outer loop
vertex -0.707107 -1.000000 0.707107
vertex -0.382683 1.000000 0.923880
vertex -0.382683 -1.000000 0.923880
endloop
endfacet
facet normal 0.195090 -0.000000 -0.980785
outer loop
vertex -0.382683 -1.000000 0.923880
vertex -0.000000 1.000000 1.000000
vertex -0.000000 -1.000000 1.000000
endloop
endfacet
facet normal -0.195090 -0.000000 -0.980785
outer loop
vertex -0.000000 -1.000000 1.000000
vertex 0.382683 1.000000 0.923880
vertex 0.382683 -1.000000 0.923880
endloop
endfacet
facet normal -0.980785 -0.000000 -0.195090
outer loop
vertex 0.923880 -1.000000 0.382683
vertex 1.000000 1.000000 0.000000
vertex 1.000000 -1.000000 0.000000
endloop
endfacet
facet normal -0.555570 -0.000000 -0.831470
outer loop
vertex 0.382683 -1.000000 0.923880
vertex 0.707107 1.000000 0.707107
vertex 0.707107 -1.000000 0.707107
endloop
endfacet
facet normal 0.000000 -1.000000 -0.000000
outer loop
vertex -5.000000 -1.000000 5.000000
vertex -0.923880 -1.000000 0.382683
vertex -0.707107 -1.000000 0.707107
endloop
endfacet
facet normal 0.000000 -1.000000 -0.000000
outer loop
vertex 0.707107 -1.000000 -0.707107
vertex 0.382683 -1.000000 -0.923880
vertex 5.000000 -1.000000 -5.000000
endloop
endfacet
facet normal 0.000000 -1.000000 -0.000000
outer loop
vertex -5.000000 -1.000000 -5.000000
vertex -0.707107 -1.000000 -0.707107
vertex -0.923880 -1.000000 -0.382683
endloop
endfacet
facet normal 0.000000 1.000000 -0.000000
outer loop
vertex -5.000000 1.000000 -5.000000
vertex -0.923880 1.000000 -0.382683
vertex -0.707107 1.000000 -0.707107
endloop
endfacet
facet normal 0.000000 1.000000 -0.000000
outer loop
vertex -0.707107 1.000000 0.707107
vertex -0.923880 1.000000 0.382683
vertex -5.000000 1.000000 5.000000
endloop
endfacet
facet normal 0.000000 1.000000 -0.000000
outer loop
vertex 0.923880 1.000000 0.382683
vertex 0.707107 1.000000 0.707107
vertex 5.000000 1.000000 5.000000
endloop
endfacet
facet normal -0.000000 -1.000000 -0.000000
outer loop
vertex -0.382683 -1.000000 -0.923880
vertex -5.000000 -1.000000 -5.000000
vertex 0.000000 -1.000000 -1.000000
endloop
endfacet
facet normal -0.000000 -1.000000 -0.000000
outer loop
vertex -5.000000 -1.000000 -5.000000
vertex 5.000000 -1.000000 -5.000000
vertex 0.000000 -1.000000 -1.000000
endloop
endfacet
facet normal -0.000000 -0.000000 -1.000000
outer loop
vertex 5.000000 -1.000000 -5.000000
vertex -5.000000 -1.000000 -5.000000
vertex -5.000000 1.000000 -5.000000
endloop
endfacet
facet normal 1.000000 0.000000 0.000000
outer loop
vertex 5.000000 -1.000000 5.000000
vertex 5.000000 -1.000000 -5.000000
vertex 5.000000 1.000000 -5.000000
endloop
endfacet
facet normal 0.000000 0.000000 1.000000
outer loop
vertex -5.000000 -1.000000 5.000000
vertex 5.000000 -1.000000 5.000000
vertex 5.000000 1.000000 5.000000
endloop
endfacet
facet normal -1.000000 -0.000000 -0.000000
outer loop
vertex -5.000000 -1.000000 -5.000000
vertex -5.000000 -1.000000 5.000000
vertex -5.000000 1.000000 5.000000
endloop
endfacet
facet normal 0.000000 1.000000 0.000000
outer loop
vertex -1.000000 1.000000 -0.000000
vertex -0.923880 1.000000 -0.382683
vertex -5.000000 1.000000 -5.000000
endloop
endfacet
facet normal -0.831470 -0.000000 -0.555570
outer loop
vertex 0.707107 -1.000000 0.707107
vertex 0.707107 1.000000 0.707107
vertex 0.923880 1.000000 0.382683
endloop
endfacet
facet normal -0.980785 0.000000 0.195090
outer loop
vertex 1.000000 -1.000000 0.000000
vertex 1.000000 1.000000 0.000000
vertex 0.923880 1.000000 -0.382683
endloop
endfacet
facet normal -0.831470 -0.000000 0.555570
outer loop
vertex 0.923880 -1.000000 -0.382683
vertex 0.923880 1.000000 -0.382683
vertex 0.707107 1.000000 -0.707107
endloop
endfacet
facet normal -0.555570 0.000000 0.831470
outer loop
vertex 0.707107 -1.000000 -0.707107
vertex 0.707107 1.000000 -0.707107
vertex 0.382683 1.000000 -0.923880
endloop
endfacet
facet normal -0.195090 -0.000000 0.980785
outer loop
vertex 0.382683 -1.000000 -0.923880
vertex 0.382683 1.000000 -0.923880
vertex 0.000000 1.000000 -1.000000
endloop
endfacet
facet normal 0.195090 0.000000 0.980785
outer loop
vertex 0.000000 -1.000000 -1.000000
vertex 0.000000 1.000000 -1.000000
vertex -0.382683 1.000000 -0.923880
endloop
endfacet
facet normal 0.555570 -0.000000 0.831470
outer loop
vertex -0.382683 -1.000000 -0.923880
vertex -0.382683 1.000000 -0.923880
vertex -0.707107 1.000000 -0.707107
endloop
endfacet
facet normal 0.831470 0.000000 0.555570
outer loop
vertex -0.707107 -1.000000 -0.707107
vertex -0.707107 1.000000 -0.707107
vertex -0.923880 1.000000 -0.382683
endloop
endfacet
facet normal 0.980785 -0.000000 0.195090
outer loop
vertex -0.923880 -1.000000 -0.382683
vertex -0.923880 1.000000 -0.382683
vertex -1.000000 1.000000 -0.000000
endloop
endfacet
facet normal 0.980785 0.000000 -0.195090
outer loop
vertex -1.000000 -1.000000 -0.000000
vertex -1.000000 1.000000 -0.000000
vertex -0.923880 1.000000 0.382683
endloop
endfacet
facet normal 0.831470 -0.000000 -0.555570
outer loop
vertex -0.923880 -1.000000 0.382683
vertex -0.923880 1.000000 0.382683
vertex -0.707107 1.000000 0.707107
endloop
endfacet
facet normal 0.555570 -0.000000 -0.831470
outer loop
vertex -0.707107 -1.000000 0.707107
vertex -0.707107 1.000000 0.707107
vertex -0.382683 1.000000 0.923880
endloop
endfacet
facet normal 0.195090 -0.000000 -0.980785
outer loop
vertex -0.382683 -1.000000 0.923880
vertex -0.382683 1.000000 0.923880
vertex -0.000000 1.000000 1.000000
endloop
endfacet
facet normal -0.195090 -0.000000 -0.980785
outer loop
vertex -0.000000 -1.000000 1.000000
vertex -0.000000 1.000000 1.000000
vertex 0.382683 1.000000 0.923880
endloop
endfacet
facet normal -0.980785 -0.000000 -0.195090
outer loop
vertex 0.923880 -1.000000 0.382683
vertex 0.923880 1.000000 0.382683
vertex 1.000000 1.000000 0.000000
endloop
endfacet
facet normal -0.555570 -0.000000 -0.831470
outer loop
vertex 0.382683 -1.000000 0.923880
vertex 0.382683 1.000000 0.923880
vertex 0.707107 1.000000 0.707107
endloop
endfacet
facet normal 0.000000 -1.000000 -0.000000
outer loop
vertex 0.382683 -1.000000 0.923880
vertex 0.707107 -1.000000 0.707107
vertex 5.000000 -1.000000 5.000000
endloop
endfacet
facet normal 0.000000 -1.000000 -0.000000
outer loop
vertex -5.000000 -1.000000 5.000000
vertex -0.707107 -1.000000 0.707107
vertex -0.382683 -1.000000 0.923880
endloop
endfacet
facet normal 0.000000 -1.000000 -0.000000
outer loop
vertex -5.000000 -1.000000 5.000000
vertex -0.382683 -1.000000 0.923880
vertex -0.000000 -1.000000 1.000000
endloop
endfacet
facet normal 0.000000 -1.000000 -0.000000
outer loop
vertex -5.000000 -1.000000 5.000000
vertex -0.000000 -1.000000 1.000000
vertex 5.000000 -1.000000 5.000000
endloop
endfacet
facet normal 0.000000 -1.000000 -0.000000
outer loop
vertex -0.000000 -1.000000 1.000000
vertex 0.382683 -1.000000 0.923880
vertex 5.000000 -1.000000 5.000000
endloop
endfacet
facet normal 0.000000 -1.000000 -0.000000
outer loop
vertex 0.382683 -1.000000 -0.923880
vertex 0.000000 -1.000000 -1.000000
vertex 5.000000 -1.000000 -5.000000
endloop
endfacet
facet normal 0.000000 -1.000000 -0.000000
outer loop
vertex 5.000000 -1.000000 5.000000
vertex 0.707107 -1.000000 0.707107
vertex 0.923880 -1.000000 0.382683
endloop
endfacet
facet normal 0.000000 -1.000000 -0.000000
outer loop
vertex 0.923880 -1.000000 -0.382683
vertex 0.707107 -1.000000 -0.707107
vertex 5.000000 -1.000000 -5.000000
endloop
endfacet
facet normal 0.000000 -1.000000 -0.000000
outer loop
vertex 1.000000 -1.000000 0.000000
vertex 0.923880 -1.000000 -0.382683
vertex 5.000000 -1.000000 -5.000000
endloop
endfacet
facet normal 0.000000 -1.000000 -0.000000
outer loop
vertex 1.000000 -1.000000 0.000000
vertex 5.000000 -1.000000 5.000000
vertex 0.923880 -1.000000 0.382683
endloop
endfacet
facet normal 0.000000 -1.000000 -0.000000
outer loop
vertex 1.000000 -1.000000 0.000000
vertex 5.000000 -1.000000 -5.000000
vertex 5.000000 -1.000000 5.000000
endloop
endfacet
facet normal 0.000000 -1.000000 -0.000000
outer loop
vertex -5.000000 -1.000000 -5.000000
vertex -0.923880 -1.000000 -0.382683
vertex -1.000000 -1.000000 -0.000000
endloop
endfacet
facet normal 0.000000 -1.000000 -0.000000
outer loop
vertex -5.000000 -1.000000 5.000000
vertex -1.000000 -1.000000 -0.000000
vertex -0.923880 -1.000000 0.382683
endloop
endfacet
facet normal 0.000000 -1.000000 -0.000000
outer loop
vertex -5.000000 -1.000000 5.000000
vertex -5.000000 -1.000000 -5.000000
vertex -1.000000 -1.000000 -0.000000
endloop
endfacet
facet normal 0.000000 1.000000 -0.000000
outer loop
vertex 5.000000 1.000000 -5.000000
vertex 0.382683 1.000000 -0.923880
vertex 0.707107 1.000000 -0.707107
endloop
endfacet
facet normal 0.000000 1.000000 -0.000000
outer loop
vertex -5.000000 1.000000 -5.000000
vertex -0.707107 1.000000 -0.707107
vertex -0.382683 1.000000 -0.923880
endloop
endfacet
facet normal 0.000000 1.000000 -0.000000
outer loop
vertex -5.000000 1.000000 -5.000000
vertex -0.382683 1.000000 -0.923880
vertex 0.000000 1.000000 -1.000000
endloop
endfacet
facet normal 0.000000 1.000000 -0.000000
outer loop
vertex 5.000000 1.000000 -5.000000
vertex 0.000000 1.000000 -1.000000
vertex 0.382683 1.000000 -0.923880
endloop
endfacet
facet normal 0.000000 1.000000 -0.000000
outer loop
vertex 5.000000 1.000000 -5.000000
vertex -5.000000 1.000000 -5.000000
vertex 0.000000 1.000000 -1.000000
endloop
endfacet
facet normal 0.000000 1.000000 -0.000000
outer loop
vertex -0.923880 1.000000 0.382683
vertex -1.000000 1.000000 -0.000000
vertex -5.000000 1.000000 5.000000
endloop
endfacet
facet normal 0.000000 1.000000 -0.000000
outer loop
vertex 0.382683 1.000000 0.923880
vertex 5.000000 1.000000 5.000000
vertex 0.707107 1.000000 0.707107
endloop
endfacet
facet normal 0.000000 1.000000 -0.000000
outer loop
vertex -0.382683 1.000000 0.923880
vertex -0.707107 1.000000 0.707107
vertex -5.000000 1.000000 5.000000
endloop
endfacet
facet normal 0.000000 1.000000 -0.000000
outer loop
vertex 0.382683 1.000000 0.923880
vertex -0.000000 1.000000 1.000000
vertex 5.000000 1.000000 5.000000
endloop
endfacet
facet normal 0.000000 1.000000 -0.000000
outer loop
vertex -0.000000 1.000000 1.000000
vertex -5.000000 1.000000 5.000000
vertex 5.000000 1.000000 5.000000
endloop
endfacet
facet normal 0.000000 1.000000 -0.000000
outer loop
vertex -0.000000 1.000000 1.000000
vertex -0.382683 1.000000 0.923880
vertex -5.000000 1.000000 5.000000
endloop
endfacet
facet normal 0.000000 1.000000 -0.000000
outer loop
vertex 5.000000 1.000000 -5.000000
vertex 0.707107 1.000000 -0.707107
vertex 0.923880 1.000000 -0.382683
endloop
endfacet
facet normal 0.000000 1.000000 -0.000000
outer loop
vertex 5.000000 1.000000 -5.000000
vertex 0.923880 1.000000 -0.382683
vertex 1.000000 1.000000 0.000000
endloop
endfacet
facet normal 0.000000 1.000000 -0.000000
outer loop
vertex 0.923880 1.000000 0.382683
vertex 5.000000 1.000000 5.000000
vertex 1.000000 1.000000 0.000000
endloop
endfacet
facet normal 0.000000 1.000000 -0.000000
outer loop
vertex 5.000000 1.000000 5.000000
vertex 5.000000 1.000000 -5.000000
vertex 1.000000 1.000000 0.000000
endloop
endfacet
end solid
